<svg width="32" height="33" viewBox="0 0 32 33" fill="none" xmlns="http://www.w3.org/2000/svg">
<g clip-path="url(#clip0_47_13)">
<path d="M16.3054 8.67615C22.5712 14.1948 26.0841 17.6724 32.3499 23.1911C32.3499 26.9402 32.3499 29.0421 32.3499 32.7914C30.0254 32.7914 28.7223 32.7914 26.3978 32.7914C26.3978 29.7919 26.3978 28.1103 26.3978 25.1111L16.3054 16.2022M16.3054 8.67615C16.3054 11.4655 16.3054 13.4128 16.3054 16.2022M16.3054 8.67615L10.1809 14.4539M16.3054 16.2022L12.6393 19.4663M16.3054 16.2022L10.1809 14.4539M10.1809 14.4539L0.260864 23.1911M10.1809 14.4539L12.6393 19.4663M0.260864 23.1911V27.9913M0.260864 23.1911L6.29914 25.1111M0.260864 23.1911L8.97322 22.7303M0.260864 27.9913V32.7914M0.260864 27.9913L6.29914 25.1111M0.260864 27.9913L6.29914 28.9513M6.29914 25.1111V28.9513M6.29914 25.1111L8.97322 22.7303M8.97322 22.7303L5.78156 18.5062L12.6393 19.4663M8.97322 22.7303L12.6393 19.4663M0.260864 32.7914H6.29914V28.9513M0.260864 32.7914L6.29914 28.9513" stroke="#1D1D1B" stroke-width="0.2"/>
<path d="M32.3501 32.7911H26.3979V25.111L16.5518 15.95V9.34998L32.3501 23.1911V32.7911Z" fill="#1D1D1B" stroke="#1D1D1B" stroke-width="0.615385"/>
<path d="M16.3054 0.30426L32.3499 14.4357V21.7319L16.3054 7.4468M16.3054 0.30426V7.4468M16.3054 0.30426L8.97322 6.76218M16.3054 7.4468L10.9141 12.2469M16.3054 7.4468L8.97322 6.76218M8.97322 6.76218L4.14259 11.0168M8.97322 6.76218L10.9141 12.2469M0.260864 14.4357V21.7319L5.52279 17.047M0.260864 14.4357L5.52279 17.047M0.260864 14.4357L4.14259 11.0168M5.52279 17.047L4.14259 11.0168M5.52279 17.047L10.9141 12.2469M4.14259 11.0168L10.9141 12.2469" stroke="#1D1D1B" stroke-width="0.2"/>
<path d="M16.5518 1.09998L32.3501 14.4357V21.7318L16.5518 7.30628V1.09998Z" fill="#1D1D1B" stroke="#1D1D1B" stroke-width="0.615385"/>
<path d="M16.3055 18.1222L24.9316 25.4951V32.7914H20.6186V28.5161L16.3055 24.9576M16.3055 18.1222V24.9576M16.3055 18.1222L11.9925 21.8087M16.3055 24.9576L14.149 26.737M16.3055 24.9576L12.0235 21.8796M11.9925 21.8087L7.67944 25.4951M11.9925 21.8087L12.0235 21.8796M7.67944 25.4951V28.5161M7.67944 25.4951L11.9925 28.5161M7.67944 25.4951L14.149 26.737M7.67944 28.5161V32.7914M7.67944 28.5161H11.9925M7.67944 28.5161L11.9925 30.6538M11.9925 28.5161V30.6538M11.9925 28.5161L14.149 26.737M14.149 26.737L12.0235 21.8796M7.67944 32.7914H11.9925V30.6538M7.67944 32.7914L11.9925 30.6538" stroke="#1D1D1B" stroke-width="0.2"/>
<path d="M24.9316 32.45H20.9656V28.6L16.5518 24.75V18.7L24.8276 25.3L24.9316 32.45Z" fill="#1D1D1B" stroke="#1D1D1B" stroke-width="0.615385"/>
</g>
<defs>
<clipPath id="clip0_47_13">
<rect width="32" height="33" fill="white"/>
</clipPath>
</defs>
</svg>
