<svg width="500" height="200" viewBox="0 0 500 200" fill="none" xmlns="http://www.w3.org/2000/svg">
<g clip-path="url(#clip0_91_131)">
<path d="M103.089 62.4094L85.7786 69.5522C85.3245 69.7298 84.9356 70.0432 84.6643 70.45C84.3929 70.8569 84.2522 71.3376 84.2611 71.8273V91.3201L97.9575 85.7911C100.094 84.9709 101.927 83.5085 103.207 81.6031C104.487 79.6977 105.152 77.4419 105.11 75.143V63.7939C105.13 63.5449 105.084 63.2951 104.977 63.0697C104.87 62.8444 104.705 62.6517 104.5 62.5111C104.294 62.3705 104.056 62.287 103.808 62.2691C103.56 62.2513 103.312 62.2997 103.089 62.4094Z" fill="#78DE1F"/>
<path d="M63.2312 101.567V112.066C63.2312 126.373 73.5418 136.735 87.7907 136.735H103.224C103.476 136.743 103.727 136.7 103.962 136.607C104.197 136.514 104.41 136.373 104.589 136.193C104.767 136.014 104.907 135.8 105 135.564C105.092 135.327 105.136 135.075 105.127 134.821V117.586C105.136 117.332 105.092 117.079 105 116.843C104.907 116.607 104.767 116.392 104.589 116.212C104.411 116.032 104.197 115.892 103.962 115.798C103.728 115.704 103.476 115.66 103.224 115.668H87.4398C87.0181 115.683 86.5979 115.611 86.2051 115.456C85.8124 115.301 85.4558 115.066 85.1574 114.766C84.859 114.466 84.6254 114.107 84.471 113.713C84.3167 113.318 84.2449 112.895 84.2602 112.472V91.3076L64.7574 99.2881C64.2992 99.4619 63.9061 99.7747 63.6326 100.183C63.3591 100.592 63.2188 101.075 63.2312 101.567Z" fill="#01602A"/>
<path d="M189.581 79.5827C176.394 79.5827 166.237 89.8869 166.237 102.876C166.237 115.866 176.394 126.165 189.581 126.165C202.769 126.165 212.926 115.866 212.926 102.876C212.926 89.8869 202.769 79.5827 189.581 79.5827ZM189.581 117.029C181.652 117.029 176.126 110.857 176.126 102.876C176.126 94.8956 181.652 88.7229 189.581 88.7229C197.423 88.7229 202.944 94.8956 202.944 102.876C202.944 110.857 197.423 117.029 189.581 117.029Z" fill="#01602A"/>
<path d="M259.702 113.445L252.396 109.503C252.31 109.453 252.214 109.422 252.115 109.413C252.016 109.403 251.916 109.416 251.823 109.45C251.729 109.485 251.645 109.539 251.575 109.61C251.505 109.681 251.451 109.766 251.417 109.86C250.3 112.042 248.6 113.868 246.509 115.134C244.418 116.4 242.017 117.057 239.576 117.029C231.643 117.029 226.029 110.857 226.029 102.876C226.029 94.8956 231.643 88.7229 239.576 88.7229C242.017 88.6924 244.419 89.3467 246.51 90.6123C248.602 91.878 250.301 93.7047 251.417 95.8878C251.45 95.9822 251.503 96.0685 251.573 96.1397C251.644 96.211 251.729 96.2656 251.822 96.3C251.916 96.3341 252.016 96.3469 252.115 96.3375C252.214 96.3278 252.31 96.2963 252.396 96.2447L259.702 92.3031C259.791 92.2636 259.87 92.2048 259.933 92.1308C259.996 92.0569 260.043 91.9696 260.068 91.8754C260.094 91.7812 260.098 91.6825 260.081 91.5864C260.064 91.4903 260.026 91.3992 259.969 91.3198C256.049 84.1506 248.567 79.5827 239.567 79.5827C226.2 79.5827 216.043 89.6179 216.043 102.876C216.043 116.134 226.2 126.165 239.567 126.165C248.567 126.165 256.141 121.598 260.062 114.34C260.129 114.173 260.13 113.986 260.063 113.819C259.995 113.652 259.866 113.518 259.702 113.445Z" fill="#01602A"/>
<path d="M165.077 116.312H142.272V81.1971C142.259 81.0109 142.179 80.8357 142.048 80.7037C141.917 80.5717 141.742 80.4917 141.557 80.4784H133.181C132.996 80.4918 132.822 80.572 132.692 80.704C132.561 80.8361 132.482 81.0112 132.47 81.1971V117.03C132.47 122.136 135.588 125.271 140.667 125.271H165.077C165.263 125.258 165.437 125.178 165.567 125.046C165.698 124.914 165.777 124.738 165.788 124.552V117.03C165.777 116.844 165.698 116.668 165.567 116.536C165.437 116.404 165.263 116.324 165.077 116.312Z" fill="#01602A"/>
<path d="M386.944 116.31H363.565L386.59 88.8106C386.823 88.5353 386.948 88.1845 386.944 87.823V81.2093C386.932 81.0228 386.854 80.8471 386.721 80.7149C386.59 80.5827 386.416 80.503 386.23 80.4906H352.022C351.837 80.503 351.662 80.5827 351.53 80.7149C351.399 80.8471 351.32 81.0228 351.307 81.2093V88.7357C351.32 88.9218 351.399 89.0969 351.531 89.2284C351.662 89.3598 351.837 89.4386 352.022 89.45H374.272L351.307 117.043C351.076 117.317 350.95 117.666 350.952 118.026V124.551C350.963 124.737 351.042 124.913 351.173 125.045C351.303 125.178 351.477 125.257 351.662 125.27H386.951C387.134 125.257 387.308 125.178 387.439 125.045C387.569 124.913 387.647 124.737 387.659 124.551V117.029C387.647 116.842 387.569 116.666 387.439 116.534C387.305 116.401 387.131 116.322 386.944 116.31Z" fill="#01602A"/>
<path d="M343.641 64.446H335.265C335.08 64.4584 334.907 64.5376 334.776 64.669C334.645 64.8003 334.566 64.9749 334.554 65.1602V73.7625C334.566 73.9478 334.645 74.1224 334.776 74.2538C334.907 74.3851 335.08 74.4644 335.265 74.4768H338.47C339.25 74.5019 340.025 74.3661 340.75 74.0779C341.475 73.7896 342.134 73.355 342.685 72.8009C343.236 72.2467 343.668 71.5849 343.955 70.8562C344.242 70.1275 344.377 69.3474 344.352 68.5641V65.1602C344.339 64.9749 344.261 64.8003 344.13 64.669C343.999 64.5376 343.825 64.4584 343.641 64.446Z" fill="#01602A"/>
<path d="M435.055 80.4778H426.678C426.495 80.4912 426.321 80.5714 426.19 80.7034C426.06 80.8355 425.982 81.0106 425.97 81.1965V86.5183C423.477 82.9072 418.158 79.5827 411.712 79.5827C399.505 79.5827 390.221 90.0632 390.221 102.876C390.221 115.689 399.49 126.165 411.712 126.165C418.158 126.165 423.477 122.845 425.97 119.234V124.552C425.982 124.738 426.06 124.913 426.19 125.046C426.321 125.178 426.495 125.258 426.678 125.27H435.055C435.242 125.258 435.416 125.178 435.55 125.046C435.68 124.914 435.758 124.738 435.77 124.552V81.1965C435.758 81.0103 435.677 80.8351 435.546 80.7031C435.416 80.5711 435.242 80.4911 435.055 80.4778ZM413.493 117.206C405.657 117.206 400.217 110.936 400.217 102.876C400.217 94.8163 405.657 88.5421 413.493 88.5421C421.329 88.5421 426.772 94.8119 426.772 102.876C426.772 110.941 421.335 117.206 413.493 117.206Z" fill="#01602A"/>
<path d="M307.393 80.4778H299.016C298.831 80.4912 298.658 80.5714 298.527 80.7034C298.396 80.8355 298.318 81.0106 298.306 81.1965V86.5183C295.81 82.9072 290.49 79.5827 284.048 79.5827C271.839 79.5827 262.559 90.0632 262.559 102.876C262.559 115.689 271.825 126.165 284.048 126.165C290.49 126.165 295.81 122.845 298.306 119.234V124.552C298.317 124.738 298.395 124.913 298.526 125.046C298.657 125.178 298.831 125.258 299.016 125.27H307.393C307.578 125.258 307.752 125.178 307.883 125.046C308.014 124.913 308.092 124.738 308.103 124.552V81.1965C308.091 81.0106 308.012 80.8355 307.882 80.7034C307.751 80.5714 307.578 80.4912 307.393 80.4778ZM285.829 117.206C277.987 117.206 272.553 110.936 272.553 102.876C272.553 94.8163 277.987 88.5421 285.829 88.5421C293.67 88.5421 299.104 94.8119 299.104 102.876C299.104 110.941 293.652 117.206 285.811 117.206H285.829Z" fill="#01602A"/>
<path d="M343.641 80.4784H335.269C334.874 80.4784 334.554 80.8001 334.554 81.1971V124.548C334.554 124.945 334.874 125.266 335.269 125.266H343.641C344.036 125.266 344.356 124.945 344.356 124.548V81.1971C344.356 80.8001 344.036 80.4784 343.641 80.4784Z" fill="#01602A"/>
<path d="M325.547 64.446H317.175C316.78 64.446 316.46 64.7677 316.46 65.1647V124.551C316.46 124.948 316.78 125.27 317.175 125.27H325.547C325.942 125.27 326.262 124.948 326.262 124.551V65.1647C326.262 64.7677 325.942 64.446 325.547 64.446Z" fill="#01602A"/>
</g>
<defs>
<clipPath id="clip0_91_131">
<rect width="373" height="75" fill="white" transform="translate(63 62)"/>
</clipPath>
</defs>
</svg>
