<svg width="174" height="32" viewBox="0 0 174 32" fill="none" xmlns="http://www.w3.org/2000/svg">
<g clip-path="url(#clip0_47_36)">
<path d="M14.7768 9.88739C20.4551 14.9044 23.6388 18.0658 29.3171 23.0828C29.3171 26.4911 29.3171 28.4019 29.3171 31.8104C27.2106 31.8104 26.0296 31.8104 23.923 31.8104C23.923 29.0835 23.923 27.5548 23.923 24.8283L14.7768 16.7292M14.7768 9.88739C14.7768 12.4231 14.7768 14.1935 14.7768 16.7292M14.7768 9.88739L9.22645 15.1399M14.7768 16.7292L11.4544 19.6966M14.7768 16.7292L9.22645 15.1399M9.22645 15.1399L0.23645 23.0828M9.22645 15.1399L11.4544 19.6966M0.23645 23.0828V27.4466M0.23645 23.0828L5.70863 24.8283M0.23645 23.0828L8.13202 22.6639M0.23645 27.4466V31.8104M0.23645 27.4466L5.70863 24.8283M0.23645 27.4466L5.70863 28.3193M5.70863 24.8283V28.3193M5.70863 24.8283L8.13202 22.6639M8.13202 22.6639L5.23958 18.8238L11.4544 19.6966M8.13202 22.6639L11.4544 19.6966M0.23645 31.8104H5.70863V28.3193M0.23645 31.8104L5.70863 28.3193" stroke="#EEEDEA" stroke-width="0.2"/>
<path d="M29.3171 31.8101H23.923V24.8282L14.9999 16.5V10.5L29.3171 23.0828V31.8101Z" fill="#EEEDEA" stroke="#EEEDEA" stroke-width="0.615385"/>
<path d="M14.7768 2.27661L29.3171 15.1234V21.7563L14.7768 8.76983M14.7768 2.27661V8.76983M14.7768 2.27661L8.13202 8.14745M14.7768 8.76983L9.89093 13.1335M14.7768 8.76983L8.13202 8.14745M8.13202 8.14745L3.75427 12.0153M8.13202 8.14745L9.89093 13.1335M0.23645 15.1234V21.7563L5.00507 17.4973M0.23645 15.1234L5.00507 17.4973M0.23645 15.1234L3.75427 12.0153M5.00507 17.4973L3.75427 12.0153M5.00507 17.4973L9.89093 13.1335M3.75427 12.0153L9.89093 13.1335" stroke="#EEEDEA" stroke-width="0.2"/>
<path d="M14.9999 3L29.3171 15.1234V21.7562L14.9999 8.6421V3Z" fill="#EEEDEA" stroke="#EEEDEA" stroke-width="0.615385"/>
<path d="M14.7768 18.4747L22.5942 25.1774V31.8104H18.6855V27.9238L14.7768 24.6887M14.7768 18.4747V24.6887M14.7768 18.4747L10.8681 21.8261M14.7768 24.6887L12.8225 26.3064M14.7768 24.6887L10.8963 21.8906M10.8681 21.8261L6.95941 25.1774M10.8681 21.8261L10.8963 21.8906M6.95941 25.1774V27.9238M6.95941 25.1774L10.8681 27.9238M6.95941 25.1774L12.8225 26.3064M6.95941 27.9238V31.8104M6.95941 27.9238H10.8681M6.95941 27.9238L10.8681 29.8671M10.8681 27.9238V29.8671M10.8681 27.9238L12.8225 26.3064M12.8225 26.3064L10.8963 21.8906M6.95941 31.8104H10.8681V29.8671M6.95941 31.8104L10.8681 29.8671" stroke="#EEEDEA" stroke-width="0.2"/>
<path d="M22.5942 31.5H18.9999V28L14.9999 24.5V19L22.4999 25L22.5942 31.5Z" fill="#EEEDEA" stroke="#EEEDEA" stroke-width="0.615385"/>
<path d="M40.4707 6.47058H51.6112V9.04117H43.5254V13.3776H50.5331V15.9482H43.5254V22.1176H40.4707V6.47058ZM56.5859 6.47058H59.371L65.121 22.1176H62.0214L60.7411 18.6529H55.2158L53.9355 22.1176H50.836L56.5859 6.47058ZM60.0673 16.1494L57.9785 10.2035H57.9335L55.9121 16.1494H60.0673ZM66.0381 19.7035V17.4682H69.0478V18.7871L69.789 19.5247H74.4384L75.202 18.7647V16.1718L74.4608 15.4341H68.5088L66.083 13.02V8.8847L68.5088 6.47058H75.6063L78.0321 8.8847V11.1423H75.0224V9.80117L74.2811 9.06352H69.8339L69.0927 9.80117V12.1035L69.8339 12.8412H75.786L78.2118 15.2553V19.6588L75.7411 22.1176H68.4638L66.0381 19.7035ZM83.6773 9.04117H78.983V6.47058H91.4262V9.04117H86.7319V22.1176H83.6773V9.04117ZM99.1177 19.5471V9.04117L101.701 6.47058H109.787L112.37 9.04117V19.5471L109.787 22.1176H101.701L99.1177 19.5471ZM108.169 19.5247L109.315 18.3847V10.2035L108.169 9.06352H103.318L102.172 10.2035V18.3847L103.318 19.5247H108.169ZM115.069 6.47058H124.929L127.175 8.70588V13.0871L126.277 14.0035L127.872 15.6129V19.7035L125.446 22.1176H115.069V6.47058ZM123.357 13.02L124.166 12.2153V9.80117L123.38 9.01882H118.056V13.02H123.357ZM123.896 19.5694L124.862 18.6082V16.4176L123.896 15.4565H118.056V19.5694H123.896ZM142.469 16.9318V22.1176H139.415V17.6247L138.067 16.1271H133.171V22.1176H130.116V6.47058H139.976L142.38 8.8847V13.6235L140.852 15.1659L142.469 16.9318ZM133.171 13.6235H138.584L139.37 12.8412V9.80117L138.584 9.01882H133.171V13.6235ZM149.675 6.47058H152.46L158.21 22.1176H155.11L153.83 18.6529H148.305L147.025 22.1176H143.925L149.675 6.47058ZM153.156 16.1494L151.067 10.2035H151.023L149.001 16.1494H153.156ZM159.127 19.7035V17.4682H162.137V18.7871L162.878 19.5247H167.528L168.291 18.7647V16.1718L167.55 15.4341H161.598L159.172 13.02V8.8847L161.598 6.47058H168.696L171.121 8.8847V11.1423H168.112V9.80117L167.37 9.06352H162.923L162.182 9.80117V12.1035L162.923 12.8412H168.875L171.301 15.2553V19.6588L168.83 22.1176H161.553L159.127 19.7035Z" fill="#EEEDEA"/>
<path d="M103.272 28.9623V28.4259H103.946V28.7435L104.251 29.0541H105.875L106.187 28.7365V27.72L105.875 27.4165H103.974L103.286 26.7247V25.3906L103.974 24.7059H106.116L106.804 25.3906V25.9341H106.137V25.6094L105.825 25.2988H104.272L103.96 25.6094V26.5129L104.272 26.8235H106.173L106.861 27.5082V28.9482L106.159 29.6471H103.96L103.272 28.9623ZM107.998 28.9765V26.6965H107.36V26.1318H108.012V24.9882H108.658V26.1318H109.757V26.7035H108.658V28.7647L108.977 29.0753H109.757V29.6471H108.679L107.998 28.9765ZM110.33 28.9765V26.8094L111.011 26.1318H112.862L113.543 26.8094V28.0941H110.99V28.7718L111.302 29.0823H112.572L112.884 28.7788V28.5388H113.536V28.9765L112.87 29.6471H111.004L110.33 28.9765ZM112.884 27.5788V27.0071L112.565 26.6965H111.309L110.99 27.0071V27.5788H112.884ZM114.361 28.9765V26.8094L115.042 26.1318H116.894L117.574 26.8094V28.0941H115.021V28.7718L115.333 29.0823H116.603L116.915 28.7788V28.5388H117.567V28.9765L116.901 29.6471H115.035L114.361 28.9765ZM116.915 27.5788V27.0071L116.596 26.6965H115.34L115.021 27.0071V27.5788H116.915ZM118.499 24.6071H119.159V29.6471H118.499V24.6071ZM122.018 24.7059H125.281V25.2988H122.699V26.9365H124.94V27.5294H122.699V29.6471H122.018V24.7059ZM125.771 26.1318H126.402V26.7459L127.012 26.1318H127.956V26.7035H127.161L126.431 27.4376V29.6471H125.771V26.1318ZM128.269 29.0471V28.1788L128.872 27.5788H130.731V26.9859L130.418 26.6823H129.262L128.957 26.9859V27.2471H128.298V26.8165L128.986 26.1318H130.695L131.383 26.8165V29.6471H130.766V29.0682L130.156 29.6471H128.872L128.269 29.0471ZM130.064 29.1035L130.731 28.4682V28.1012H129.177L128.929 28.3482V28.8635L129.177 29.1035H130.064ZM132.338 26.1318H132.969V26.7741L133.614 26.1318H134.473L135.005 26.6612L135.53 26.1318H136.686L137.374 26.8165V29.6471H136.714V27.0212L136.395 26.7035H135.679L135.217 27.1623V29.6471H134.579V27.0141L134.267 26.7035H133.728L132.997 27.4306V29.6471H132.338V26.1318ZM138.258 28.9765V26.8094L138.939 26.1318H140.791L141.471 26.8094V28.0941H138.918V28.7718L139.23 29.0823H140.5L140.812 28.7788V28.5388H141.464V28.9765L140.798 29.6471H138.932L138.258 28.9765ZM140.812 27.5788V27.0071L140.493 26.6965H139.237L138.918 27.0071V27.5788H140.812ZM144.084 28.9765V26.8094L144.764 26.1318H146.616L147.297 26.8094V28.0941H144.743V28.7718L145.055 29.0823H146.325L146.637 28.7788V28.5388H147.29V28.9765L146.623 29.6471H144.757L144.084 28.9765ZM146.637 27.5788V27.0071L146.318 26.6965H145.062L144.743 27.0071V27.5788H146.637ZM150.015 24.7059H152.987L153.789 25.5035V28.8494L152.987 29.6471H150.015V24.7059ZM152.668 29.0541L153.108 28.6165V25.7365L152.668 25.2988H150.696V29.0541H152.668ZM154.745 26.1318H155.377V26.7459L155.987 26.1318H156.93V26.7035H156.135L155.405 27.4376V29.6471H154.745V26.1318ZM160.629 26.1318V30.5153L159.941 31.1929H158.182L157.601 30.6141V30.1694H158.26V30.4165L158.473 30.6212H159.65L159.97 30.3106V28.9765L159.289 29.6471H158.182L157.494 28.9623V26.1318H158.154V28.7576L158.473 29.0753H159.154L159.97 28.2494V26.1318H160.629ZM161.34 26.1318H162.014L162.553 28.8212H162.574L163.354 26.1318H163.978L164.695 28.8212H164.716L165.305 26.1318H165.978L165.078 29.6471H164.411L163.673 26.9223H163.652L162.851 29.6471H162.177L161.34 26.1318ZM166.442 29.0471V28.1788L167.045 27.5788H168.903V26.9859L168.591 26.6823H167.435L167.13 26.9859V27.2471H166.47V26.8165L167.158 26.1318H168.868L169.556 26.8165V29.6471H168.939V29.0682L168.329 29.6471H167.045L166.442 29.0471ZM168.236 29.1035L168.903 28.4682V28.1012H167.35L167.102 28.3482V28.8635L167.35 29.1035H168.236ZM170.546 24.6071H171.205V29.6471H170.546V24.6071ZM172.271 24.6071H172.93V29.6471H172.271V24.6071Z" fill="#EEEDEA"/>
</g>
<defs>
<clipPath id="clip0_47_36">
<rect width="173.538" height="32" fill="white"/>
</clipPath>
</defs>
</svg>
