<svg width="500" height="200" viewBox="0 0 500 200" fill="none" xmlns="http://www.w3.org/2000/svg">
<path d="M119.105 106.489C117.381 107.116 115.814 107.743 114.404 108.526L112.994 109.309L112.211 109.623C111.114 110.406 110.174 111.033 109.234 111.66C108.45 112.286 107.51 113.07 106.57 113.853L103.593 117.144L103.123 116.674L101.4 114.637C100.617 113.853 99.8332 113.07 98.8931 112.286C98.1098 111.66 97.3264 111.033 96.3863 110.406L96.0729 110.093C94.9762 109.466 94.0361 108.839 92.9394 108.369L92.156 108.056C91.2159 107.586 90.4325 107.273 89.4925 106.959C87.6123 106.332 86.0456 105.706 84.4788 105.392C82.7553 104.922 81.0319 104.609 79.3084 104.296C78.9951 104.296 78.525 104.139 78.2117 104.139V145.503H129.132V104.139C127.565 104.296 125.998 104.609 124.118 105.079C122.238 105.392 120.671 105.862 119.105 106.489Z" fill="white"/>
<path d="M84.1653 103.355C81.3451 95.6778 82.9119 87.0602 81.1884 85.8067C70.3777 80.9495 75.078 65.7512 88.709 74.6822C89.3357 74.2121 89.9624 73.7421 90.5891 73.4287C91.3725 78.9126 96.5429 83.2998 102.967 83.2998C109.39 83.2998 114.561 78.9126 115.344 73.4287C115.971 73.7421 116.598 74.2121 117.224 74.6822C130.855 65.7512 135.556 80.9495 124.588 85.8067C123.021 86.9035 124.432 95.9912 121.455 103.669C114.247 105.706 107.824 109.309 103.437 114.323C99.0497 108.839 91.9992 105.236 84.1653 103.355ZM139.943 115.733H143.233C145.27 115.733 146.993 117.457 146.993 119.65V122.941C146.993 124.978 145.27 126.858 143.233 126.858H139.943C137.906 126.858 136.026 125.134 136.026 122.941V119.65C136.026 117.614 137.749 115.733 139.943 115.733ZM64.1105 115.733H67.4008C69.4376 115.733 71.1611 117.457 71.1611 119.65V122.941C71.1611 124.978 69.4376 126.858 67.4008 126.858H64.1105C62.0737 126.858 60.1936 125.134 60.1936 122.941V119.65C60.1936 117.614 61.9171 115.733 64.1105 115.733Z" fill="#C5980C"/>
<path d="M102.967 60.7375C109.86 60.7375 115.344 65.7514 115.344 71.862C115.344 77.9727 109.704 82.9866 102.967 82.9866C96.0728 82.9866 90.4324 77.9727 90.4324 71.862C90.5891 65.7514 96.0728 60.7375 102.967 60.7375Z" fill="#CF1F25"/>
<path d="M95.446 90.5074C95.446 89.0972 94.3493 87.8437 92.7825 87.8437C91.2157 87.8437 90.119 88.9405 90.119 90.5074C90.119 91.9175 91.2157 93.0143 92.7825 93.0143C94.1926 93.0143 95.446 91.9175 95.446 90.5074ZM143.233 113.54L143.076 102.259C142.606 102.259 141.979 102.102 141.509 102.102C135.712 101.475 129.758 101.789 124.118 103.042C124.588 101.632 124.901 100.222 125.058 98.8116L125.371 96.148C125.685 93.641 125.685 91.1341 125.998 88.6272C125.998 88.3138 125.998 87.8437 126.155 87.5304C127.095 87.0603 127.878 86.5903 128.662 85.9635L129.445 85.1801L130.228 84.3967L130.855 83.6133L131.482 82.6732L131.952 81.7331L132.265 80.793L132.579 79.8529L132.735 78.9128V77.9726V77.0325L132.579 76.0924L132.265 75.1523L131.952 74.3689L131.482 73.5855L131.012 72.8021L130.385 72.1753L129.758 71.0786L128.975 70.6085L128.035 70.1384L127.095 69.8251L125.998 69.6684H124.901H123.805L122.551 69.8251L121.298 70.1384C120.044 70.6085 118.791 71.0786 117.694 71.7053C117.694 67.9449 115.971 64.6545 113.151 62.3042C111.114 60.5807 108.45 59.1706 105.317 58.7005C105.63 58.2305 105.787 57.6037 105.787 56.977C105.787 55.4102 104.533 54 102.81 54C101.243 54 99.833 55.2535 99.833 56.977C99.833 57.6037 99.9897 58.2305 100.303 58.7005C97.3261 59.1706 94.6626 60.424 92.4691 62.3042C89.6489 64.8112 87.9255 68.1016 87.9255 71.7053C86.8287 71.0786 85.5753 70.6085 84.3219 70.1384L83.3818 69.8251L82.1284 69.6684H81.0316H79.9349L78.9948 69.8251L78.0548 70.1384L77.1147 70.6085L76.3313 71.0786L75.5479 71.7053L74.9212 72.332L74.2945 73.1154L73.8245 73.8989L73.3544 74.9957L73.1977 75.9358L73.0411 76.8759V77.816L73.1977 78.7561L73.3544 79.6962L73.6678 80.6363L73.9811 81.5764L74.4512 82.5165L74.9212 83.4566L75.5479 84.24L76.3313 85.0234L77.2714 85.8068C78.0548 86.4336 78.8382 86.9036 79.6215 87.3737C79.7782 88.0004 79.7782 88.6272 79.9349 89.2539C80.0916 91.4475 80.2483 93.7977 80.4049 95.9913C80.5616 97.4015 80.875 98.8116 81.0316 100.065L81.345 101.475L81.6584 102.572C76.488 101.632 71.0043 101.319 65.6772 101.945C65.2072 101.945 64.7371 102.102 64.2671 102.102V113.383H64.1104C60.6635 113.383 58 116.204 58 119.494V122.784C58 126.075 60.6635 128.895 64.1104 128.895H64.2671V145.347H65.6772H66.4606V129.052H67.4007C70.6909 129.052 73.3544 126.231 73.3544 122.941V119.651C73.3544 116.36 70.6909 113.54 67.4007 113.54H66.4606V104.296C68.9674 103.982 71.4743 103.982 73.9811 104.139C75.7046 104.296 77.5847 104.452 79.3082 104.609C81.0316 104.922 82.7551 105.236 84.4786 105.706C86.202 106.176 87.7688 106.646 89.3356 107.273C90.4323 107.743 91.5291 108.213 92.7825 108.839C93.8792 109.309 94.8193 109.936 95.916 110.563C96.8561 111.19 97.7962 111.816 98.7362 112.6C99.6763 113.383 100.46 114.167 101.243 114.95L102.967 116.987L103.593 117.77L106.883 114.167C107.667 113.383 108.607 112.6 109.547 111.973C110.487 111.19 111.427 110.563 112.524 109.936L113.307 109.623L114.717 108.839C116.127 108.056 117.694 107.429 119.261 106.959C120.828 106.332 122.551 105.862 124.275 105.549C125.998 105.236 127.722 104.922 129.445 104.609L132.109 104.296C135.085 104.139 137.906 104.139 140.883 104.452V113.697H139.943C136.652 113.697 133.832 116.517 133.832 119.807V123.098C133.832 126.388 136.652 129.208 139.943 129.208H140.883V145.66H141.509H143.076V129.052H143.233C146.523 129.052 149.186 126.231 149.186 122.941V119.651C149.186 116.36 146.523 113.54 143.233 113.54ZM67.4007 115.733C69.4375 115.733 71.1609 117.457 71.1609 119.651V122.941C71.1609 124.978 69.4375 126.858 67.4007 126.858H66.4606H65.6772H64.2671H64.1104C62.0736 126.858 60.1935 125.135 60.1935 122.941V119.651C60.1935 117.614 61.9169 115.733 64.1104 115.733H64.2671H65.6772H66.4606H67.4007ZM92.7825 65.5946C94.976 62.6176 98.7362 60.8941 102.967 60.8941C107.197 60.8941 110.957 62.7743 113.151 65.5946C114.561 67.3181 115.344 69.6684 115.344 72.0187V72.9588H113.151H102.967H92.7825H90.589C90.589 72.6454 90.589 72.332 90.589 72.0187C90.589 69.5117 91.3724 67.3181 92.7825 65.5946ZM115.031 75.1523C114.561 76.2491 114.091 77.3459 113.307 78.4427C111.114 81.263 107.354 83.1432 103.123 83.1432C98.8929 83.1432 95.2893 81.263 92.9392 78.4427C92.1558 77.5026 91.5291 76.4058 91.2157 75.1523H92.9392H103.123H113.307H115.031ZM121.611 103.669C118.634 104.452 115.814 105.549 113.151 106.959C109.39 108.839 106.257 111.346 103.593 114.323C103.437 114.01 103.123 113.853 102.967 113.54C100.146 110.563 96.6994 108.213 92.7825 106.332C90.119 105.079 87.1421 104.139 84.1652 103.355C81.345 95.6779 82.7551 87.0603 81.1883 85.8068C70.3775 80.9496 75.0779 65.908 88.5522 74.5256C89.1789 77.3459 90.589 79.8529 92.7825 81.7331C95.446 83.9266 99.0496 85.4935 102.967 85.4935C106.883 85.4935 110.487 84.0833 113.151 81.7331C115.344 79.8529 116.911 77.3459 117.381 74.5256C130.855 65.908 135.556 80.9496 124.588 85.8068C123.021 86.9036 124.588 95.9913 121.611 103.669ZM146.993 122.941C146.993 124.978 145.27 126.858 143.233 126.858H143.076H141.509H140.883H139.943C137.906 126.858 136.026 125.135 136.026 122.941V119.651C136.026 117.614 137.749 115.733 139.943 115.733H140.883H141.509H143.076H143.233C145.27 115.733 146.993 117.457 146.993 119.651V122.941ZM113.151 87.8437C111.74 87.8437 110.487 88.9405 110.487 90.5074C110.487 91.9175 111.584 93.0143 113.151 93.0143C114.561 93.0143 115.814 91.9175 115.814 90.5074C115.814 89.0972 114.561 87.8437 113.151 87.8437ZM104.533 104.452C104.377 104.452 104.063 104.296 103.907 104.139C103.75 103.982 103.75 103.826 103.75 103.826V101.005C103.907 101.005 103.907 100.849 104.063 100.849L106.57 98.6549C107.197 98.0282 107.197 96.7747 105.473 96.7747H102.81H100.146C98.4229 96.7747 98.4229 98.1849 99.0496 98.6549L101.556 100.849C101.713 100.849 101.713 101.005 101.87 101.005V103.826C101.87 103.982 101.87 103.982 101.713 104.139C101.556 104.296 101.4 104.452 101.086 104.452C99.3629 104.766 96.2294 103.982 94.976 102.415L93.7225 103.669C95.1326 105.392 100.616 107.429 102.653 105.549C104.69 107.273 110.017 105.392 111.584 103.669L110.33 102.415C109.39 103.825 106.257 104.766 104.533 104.452Z" fill="#231F20"/>
<path d="M79.7783 104.609V145.503H66.4607V129.052H67.4008C70.691 129.052 73.3545 126.231 73.3545 122.941V119.651C73.3545 116.36 70.691 113.54 67.4008 113.54H66.4607V104.296C68.9675 103.982 71.4744 103.982 73.9812 104.139C75.7047 104.296 77.5848 104.452 79.3083 104.609C79.465 104.609 79.6216 104.609 79.7783 104.609ZM140.883 145.503H127.565V104.609C128.192 104.452 128.818 104.452 129.445 104.296L132.109 103.982C135.086 103.826 137.906 103.826 140.883 104.139V113.383H139.943C136.652 113.383 133.832 116.204 133.832 119.494V122.784C133.832 126.075 136.652 128.895 139.943 128.895H140.883V145.503Z" fill="#CF1F25"/>
<path d="M102.967 145.503V143.467L93.8792 144.72L94.8193 142.056C94.976 141.586 94.6626 140.803 94.1926 140.49L85.262 134.066L87.4555 132.499C88.0822 132.185 87.9255 131.559 87.6121 131.089L86.0454 126.858L91.059 127.171C91.5291 127.171 91.9991 127.015 92.1558 126.545L92.7825 123.568L97.1695 129.208C97.4828 129.678 98.5796 129.678 98.4229 128.582L96.8561 118.867L99.2063 120.591C99.5196 120.904 100.146 120.747 100.303 120.434L102.34 116.36L103.28 117.457L104.22 116.36L106.257 120.434C106.413 120.747 107.04 120.904 107.354 120.591L109.704 118.867L108.137 128.582C107.98 129.678 109.077 129.678 109.39 129.208L113.777 123.568L114.561 126.545C114.561 126.858 115.187 127.171 115.501 127.171L120.514 126.858L118.948 131.089C118.791 131.715 118.634 132.185 119.104 132.499L121.298 134.066L112.367 140.49C111.897 140.803 111.584 141.586 111.897 142.056L112.837 144.72L104.377 143.467V145.503H102.967Z" fill="#CF1F25"/>
<path d="M288.55 115.763H292.787V76.0009H288.55V115.763ZM200.229 109.571L188.17 76.0009H181V116.089H185.237V80.2378L198.273 116.089H201.532L214.569 80.5638V116.089H219.131V76.0009H212.287L200.229 109.571ZM271.277 85.4526C270.951 85.4526 270.625 85.4526 270.299 85.4526C268.669 85.4526 267.366 86.1044 266.062 87.0822C264.433 88.0599 263.129 89.6896 262.151 91.971V86.1044H258.24V126.193H262.477V111.2C263.455 112.83 264.759 114.134 266.062 115.111C267.366 115.763 268.669 116.415 269.973 116.415C270.299 116.415 270.625 116.415 270.625 116.415C274.21 116.415 276.817 115.111 279.098 112.178C281.38 109.245 282.358 105.66 282.358 100.771C282.358 96.208 281.38 92.6228 279.098 89.6896C277.143 86.7563 274.536 85.4526 271.277 85.4526ZM275.513 109.571C274.21 111.526 272.254 112.504 269.973 112.504H269.647C267.366 112.504 265.736 111.526 264.433 109.897C263.129 108.593 262.477 106.312 262.477 103.378V98.4894C262.477 95.8821 263.129 93.9265 264.759 91.971C266.388 90.3414 268.018 89.3636 270.299 89.3636C272.58 89.3636 274.536 90.3414 276.165 92.2969C277.469 94.2524 278.121 97.1857 278.121 100.771C277.795 104.682 277.143 107.615 275.513 109.571ZM250.419 109.897V97.1857C250.419 93.2747 249.441 90.0155 247.811 88.3859C246.182 86.4303 243.249 85.4526 239.338 85.4526C239.012 85.4526 238.686 85.4526 238.36 85.4526C235.427 85.4526 232.819 86.1044 230.864 87.4081C228.583 88.7118 227.279 90.6673 226.627 93.6006L230.864 94.2524C231.19 92.6228 232.168 91.3192 233.471 90.3414C234.775 89.6896 236.404 89.0377 238.36 89.0377H238.686C241.293 89.0377 242.923 89.6895 244.226 90.6673C245.53 91.6451 246.182 93.2747 246.182 95.5561V97.5117H245.204H243.574C241.619 97.5117 239.989 97.5117 238.36 97.8376C235.101 98.1635 232.168 98.8154 230.212 100.119C227.279 101.749 225.649 104.356 225.649 107.615C225.649 110.223 226.627 112.504 228.583 114.134C230.538 115.763 232.819 116.741 236.079 116.741C237.056 116.741 237.708 116.741 238.36 116.415C239.664 116.089 240.641 115.763 241.945 115.111C243.9 114.134 245.204 112.504 246.182 110.549C246.182 111.526 246.182 112.504 246.182 113.482C246.182 114.46 246.508 115.437 246.834 116.089H251.07C250.744 115.111 250.744 114.46 250.419 113.482C250.744 112.178 250.419 111.2 250.419 109.897ZM246.182 102.4C246.182 105.334 245.204 107.941 243.574 109.897C242.271 111.526 240.641 112.504 238.686 112.83C238.36 112.83 237.708 112.83 237.056 112.83C235.101 112.83 233.797 112.504 232.494 111.526C231.516 110.549 230.864 109.245 230.864 107.615C230.864 105.334 231.842 103.704 233.797 102.726C235.101 102.075 236.73 101.423 238.36 101.097C239.664 101.097 240.967 100.771 242.597 100.771H244.552C245.204 100.771 245.53 100.771 245.856 100.771L246.182 102.4ZM312.341 85.4526C308.43 85.4526 305.171 87.0822 302.89 89.6896C300.608 92.6228 299.305 96.208 299.305 101.097C299.305 105.986 300.608 109.571 302.89 112.504C305.171 115.437 308.43 116.741 312.667 116.741C315.6 116.741 318.533 116.089 320.489 114.46C322.77 113.156 324.074 110.874 325.378 107.941L321.141 107.289C320.489 109.245 319.511 110.549 317.882 111.526C316.578 112.504 314.948 113.156 312.993 113.156H312.667C310.06 113.156 308.104 112.178 306.475 110.223C304.845 108.267 304.193 105.66 304.193 101.749H312.667H325.703V101.097C325.703 96.5339 324.726 92.6229 322.118 90.0155C319.511 86.7563 316.578 85.4526 312.341 85.4526ZM312.341 98.1635H303.868C304.193 95.2302 305.171 92.9488 306.801 91.3192C308.104 90.0155 310.06 89.0377 312.341 89.0377H312.667C314.948 89.0377 316.904 89.6896 318.533 91.3192C319.837 92.9488 320.815 94.9043 320.815 97.8376C320.815 98.1635 312.341 98.1635 312.341 98.1635ZM441.727 85.4526C441.075 85.4526 440.749 85.4526 440.423 85.4526C438.468 85.4526 436.838 86.1044 435.209 87.4081C433.905 88.7118 432.601 90.3414 431.624 92.9488V86.4303H427.387V116.089H431.624V101.097C431.624 97.8376 432.601 94.9043 434.231 92.9488C435.861 90.9933 438.142 90.0155 441.075 90.0155H441.727V85.4526ZM419.891 109.897V97.1857C419.891 93.2747 418.913 90.0155 417.284 88.3859C415.654 86.4303 412.721 85.4526 408.81 85.4526C408.484 85.4526 408.158 85.4526 407.832 85.4526C404.573 85.4526 401.966 86.1044 400.011 87.4081C398.055 88.7118 396.426 90.6673 396.1 93.6006L400.336 94.2524C400.662 92.6228 401.64 91.3192 402.944 90.3414C404.247 89.6896 405.877 89.0377 408.158 89.0377H408.484C410.766 89.0377 412.721 89.6895 414.025 90.6673C415.328 91.6451 415.654 93.2747 415.654 95.5561V97.5117H414.676H413.047C411.091 97.5117 409.462 97.5117 407.832 97.8376C404.573 98.1635 401.64 98.8154 399.685 100.119C396.751 101.749 395.122 104.356 395.122 107.615C395.122 110.223 396.1 112.504 398.055 114.134C400.011 115.763 402.292 116.741 405.225 116.741C406.203 116.741 406.855 116.741 407.832 116.415C409.136 116.089 410.114 115.763 411.417 115.111C413.047 114.134 414.676 112.504 415.654 110.549C415.654 111.526 415.654 112.504 415.98 113.482C415.98 114.46 416.306 115.437 416.306 116.089H420.869C420.543 115.111 420.217 114.46 420.217 113.482C419.891 112.178 419.891 111.2 419.891 109.897ZM415.328 102.4C415.328 105.334 414.351 107.941 412.721 109.897C411.417 111.526 409.788 112.504 407.832 112.83C407.181 112.83 406.855 112.83 406.203 112.83C404.247 112.83 402.944 112.504 401.64 111.526C400.662 110.549 400.011 109.245 400.011 107.615C400.011 105.334 400.988 103.704 402.944 102.726C404.247 102.075 405.551 101.423 407.506 101.097C408.81 101.097 410.114 100.771 411.743 100.771H413.699C414.025 100.771 414.676 100.771 415.002 100.771L415.328 102.4ZM378.175 85.4526C374.264 85.4526 371.005 87.0822 368.723 89.6896C366.442 92.2969 365.138 96.208 365.138 101.097C365.138 105.986 366.442 109.571 368.723 112.504C371.005 115.437 374.264 116.741 378.501 116.741C381.434 116.741 384.367 116.089 386.322 114.46C388.604 113.156 389.907 110.874 391.211 107.941L386.974 107.289C386.322 109.245 385.019 110.549 383.715 111.526C382.412 112.504 380.782 113.156 378.827 113.156H378.501C375.893 113.156 373.938 112.178 372.308 110.223C370.679 108.267 370.027 105.66 370.027 101.749H378.501H391.537V101.097C391.537 96.5339 390.233 92.6229 387.952 90.0155C385.345 86.7563 382.086 85.4526 378.175 85.4526ZM378.175 98.1635H369.701C370.027 95.2302 371.005 92.9488 372.308 91.3192C373.612 90.0155 375.567 89.0377 377.849 89.0377H378.175C380.456 89.0377 382.412 89.6896 384.041 91.3192C385.345 92.9488 386.322 94.9043 386.322 97.8376C386.648 98.1635 378.175 98.1635 378.175 98.1635ZM352.428 94.5784C354.709 93.9265 356.339 92.9488 357.642 91.3192C358.946 89.6896 359.598 88.06 359.598 86.1044C359.598 82.8452 358.62 80.2378 356.339 78.6082C354.383 76.6527 351.124 76.0009 347.213 76.0009H346.236H332.222V116.089H346.236H346.562C351.124 116.089 354.709 115.111 357.317 113.156C359.598 111.2 360.902 108.593 360.902 105.008C360.902 102.4 360.25 100.445 358.62 98.4894C356.991 96.5339 355.035 95.2302 352.428 94.5784ZM336.784 79.9119H346.236C348.843 79.9119 350.798 80.5638 352.428 81.5415C354.057 82.5193 354.383 84.1489 354.383 86.1044C354.383 88.3859 353.732 90.0155 352.102 91.3192C350.798 92.2969 348.843 92.9488 346.236 92.9488H345.584H336.784V79.9119ZM353.08 109.897C351.45 111.2 349.169 111.852 346.236 111.852H336.784V96.8598H345.258H345.91C348.843 96.8598 351.124 97.5117 352.754 98.8153C354.383 100.119 355.361 102.075 355.361 104.682C355.687 106.963 354.709 108.593 353.08 109.897Z" fill="#1D1D1B"/>
<path d="M252.014 138.714L254.621 139.365C253.97 141.321 253.318 142.951 251.688 143.928C250.059 144.906 248.755 145.558 246.8 145.558C244.844 145.558 243.215 145.232 241.911 144.254C240.607 143.277 239.63 142.299 238.978 140.669C238.326 139.04 238 137.41 238 135.78C238 133.825 238.326 132.195 238.978 130.566C239.63 128.936 240.933 127.958 242.237 127.306C243.54 126.655 245.17 126.329 246.8 126.329C248.755 126.329 250.385 126.655 251.362 127.632C252.34 128.61 253.644 129.914 253.97 131.543L251.688 132.195C251.362 130.892 250.71 129.914 249.733 129.262C248.755 128.61 247.777 128.284 246.474 128.284C245.17 128.284 243.866 128.61 242.889 129.262C241.911 129.914 241.259 130.892 240.933 131.869C240.607 132.847 240.281 134.151 240.281 135.454C240.281 137.084 240.607 138.388 240.933 139.691C241.259 140.995 242.237 141.647 243.215 142.299C244.192 142.951 245.17 143.277 246.474 143.277C247.777 143.277 249.081 142.951 250.059 141.973C251.036 140.995 251.688 140.343 252.014 138.714Z" fill="#1D1D1B" stroke="black" stroke-width="0.1" stroke-miterlimit="10"/>
<path d="M266.028 143.603C265.05 144.254 264.398 144.906 263.421 145.232C262.443 145.558 262.117 145.558 261.139 145.558C259.51 145.558 258.532 145.232 257.554 144.58C256.577 143.929 256.251 142.951 256.251 141.647C256.251 140.995 256.251 140.343 256.577 139.692C256.903 139.04 257.228 138.714 257.88 138.388C258.532 138.062 258.858 137.736 259.51 137.736C259.836 137.736 260.488 137.41 261.465 137.41C263.421 137.084 264.724 137.084 265.702 136.758C265.702 136.432 265.702 136.106 265.702 136.106C265.702 135.129 265.376 134.477 265.05 134.151C264.398 133.499 263.747 133.499 262.443 133.499C261.465 133.499 260.488 133.825 260.162 134.151C259.836 134.477 259.184 135.129 258.858 136.106L256.577 135.78C256.903 134.803 257.228 134.151 257.554 133.499C257.88 132.847 258.858 132.521 259.51 132.195C260.162 131.869 261.465 131.869 262.443 131.869C263.747 131.869 264.398 131.869 265.376 132.195C266.354 132.521 266.68 132.847 267.006 133.173C267.332 133.499 267.658 134.151 267.658 134.803C267.658 135.129 267.658 135.781 267.658 136.758V139.692C267.658 141.973 267.658 143.277 267.658 143.603C267.658 143.929 267.983 144.58 268.309 145.232H266.028C266.354 144.906 266.354 144.254 266.028 143.603ZM266.028 138.388C265.05 138.714 264.073 139.04 262.443 139.366C261.465 139.366 260.813 139.692 260.488 139.692C260.162 139.692 259.836 140.017 259.51 140.343C259.184 140.669 259.184 140.995 259.184 141.321C259.184 141.973 259.51 142.299 259.836 142.951C260.162 143.603 261.139 143.603 261.791 143.603C262.769 143.603 263.421 143.277 264.073 142.951C264.724 142.625 265.376 141.973 265.702 141.321C266.028 140.669 266.028 140.017 266.028 139.04V138.388Z" fill="#1D1D1B" stroke="black" stroke-width="0.1" stroke-miterlimit="10"/>
<path d="M271.894 145.232V131.869H273.85V133.825C274.827 132.195 276.131 131.544 278.087 131.544C278.738 131.544 279.716 131.544 280.368 131.869C281.02 132.195 281.672 132.521 281.997 133.173C282.323 133.825 282.649 134.151 282.649 134.803C282.649 135.129 282.649 136.106 282.649 137.084V145.558H280.694V137.41C280.694 136.432 280.694 135.781 280.368 135.455C280.042 135.129 279.716 134.477 279.39 134.477C279.064 134.477 278.412 134.151 277.761 134.151C276.783 134.151 275.805 134.477 275.153 135.129C274.502 135.781 274.176 136.106 274.176 137.736V145.232H271.894Z" fill="#1D1D1B" stroke="black" stroke-width="0.1" stroke-miterlimit="10"/>
<path d="M295.034 143.603C294.056 144.254 293.404 144.906 292.427 145.232C291.449 145.558 291.123 145.558 290.145 145.558C288.516 145.558 287.538 145.232 286.56 144.58C285.582 143.929 285.257 142.951 285.257 141.647C285.257 140.995 285.257 140.343 285.583 139.692C285.908 139.04 286.234 138.714 286.886 138.388C287.538 138.062 287.864 137.736 288.516 137.736C288.842 137.736 289.493 137.41 290.471 137.41C292.427 137.084 293.73 137.084 294.708 136.758C294.708 136.432 294.708 136.106 294.708 136.106C294.708 135.129 294.382 134.477 294.056 134.151C293.404 133.499 292.752 133.499 291.449 133.499C290.471 133.499 289.493 133.825 289.167 134.151C288.842 134.477 288.19 135.129 287.864 136.106L285.583 135.78C285.908 134.803 286.234 134.151 286.56 133.499C286.886 132.847 287.864 132.521 288.516 132.195C289.167 131.869 290.471 131.869 291.449 131.869C292.752 131.869 293.404 131.869 294.382 132.195C295.36 132.521 295.686 132.847 296.012 133.173C296.337 133.499 296.663 134.151 296.663 134.803C296.663 135.129 296.663 135.781 296.663 136.758V139.692C296.663 141.973 296.663 143.277 296.663 143.603C296.663 143.929 296.989 144.58 297.315 145.232H295.034C295.36 144.906 295.36 144.254 295.034 143.603ZM295.034 138.388C294.056 138.714 293.078 139.04 291.449 139.366C290.471 139.366 289.819 139.692 289.493 139.692C289.167 139.692 288.842 140.017 288.516 140.343C288.19 140.669 288.19 140.995 288.19 141.321C288.19 141.973 288.516 142.299 288.842 142.951C289.167 143.603 290.145 143.603 290.797 143.603C291.775 143.603 292.427 143.277 293.078 142.951C293.73 142.625 294.382 141.973 294.708 141.321C295.034 140.669 295.034 140.017 295.034 139.04V138.388Z" fill="#1D1D1B" stroke="black" stroke-width="0.1" stroke-miterlimit="10"/>
<path d="M309.699 145.232V143.602C308.722 144.906 307.744 145.558 305.788 145.558C304.811 145.558 303.833 145.232 302.855 144.58C301.878 143.928 301.226 143.277 300.9 141.973C300.574 140.669 300.248 139.691 300.248 138.388C300.248 137.084 300.574 135.78 300.9 134.803C301.226 133.825 301.878 132.847 302.855 132.195C303.833 131.543 304.811 131.217 305.788 131.217C306.44 131.217 307.418 131.543 308.07 131.869C308.722 132.195 309.373 132.521 309.699 133.173V126.329H311.981V144.906C311.655 145.232 309.699 145.232 309.699 145.232ZM302.529 138.388C302.529 140.017 302.855 141.321 303.507 142.299C304.159 143.277 305.137 143.602 306.114 143.602C307.092 143.602 308.07 143.277 308.722 142.299C309.373 141.321 309.699 140.343 309.699 138.388C309.699 136.432 309.373 135.128 308.722 134.477C308.07 133.825 307.092 133.173 306.114 133.173C305.137 133.173 304.159 133.499 303.507 134.477C302.855 135.454 302.529 136.758 302.529 138.388Z" fill="#1D1D1B" stroke="black" stroke-width="0.1" stroke-miterlimit="10"/>
<path d="M315.24 129.262V126.655H317.521V129.262H315.24ZM315.24 145.232V131.87H317.521V145.232H315.24Z" fill="#1D1D1B" stroke="black" stroke-width="0.1" stroke-miterlimit="10"/>
<path d="M329.906 143.603C328.928 144.254 328.276 144.906 327.299 145.232C326.321 145.558 325.995 145.558 325.017 145.558C323.388 145.558 322.41 145.232 321.432 144.58C320.455 143.929 320.129 142.951 320.129 141.647C320.129 140.995 320.129 140.343 320.455 139.692C320.78 139.04 321.106 138.714 321.758 138.388C322.41 138.062 322.736 137.736 323.388 137.736C323.714 137.736 324.365 137.41 325.343 137.41C327.299 137.084 328.602 137.084 329.58 136.758C329.58 136.432 329.58 136.106 329.58 136.106C329.58 135.129 329.254 134.477 328.928 134.151C328.276 133.499 327.625 133.499 326.321 133.499C325.343 133.499 324.365 133.825 324.04 134.151C323.714 134.477 323.388 134.803 323.062 135.781L320.78 135.455C321.106 134.477 321.432 133.825 321.758 133.173C322.084 132.521 322.736 132.195 323.714 131.869C324.691 131.544 325.669 131.544 326.647 131.544C327.95 131.544 328.602 131.544 329.58 131.869C330.558 132.195 330.884 132.521 331.21 132.847C331.535 133.173 331.861 133.825 331.861 134.477C331.861 134.803 331.861 135.455 331.861 136.432V139.366C331.861 141.647 331.861 142.951 331.861 143.277C331.861 143.603 332.187 144.254 332.513 144.906H330.232C330.232 144.906 329.906 144.254 329.906 143.603ZM329.906 138.388C328.928 138.714 327.95 139.04 326.321 139.366C325.343 139.366 324.691 139.692 324.365 139.692C324.04 139.692 323.714 140.017 323.388 140.343C323.062 140.669 323.062 140.995 323.062 141.321C323.062 141.973 323.388 142.299 323.714 142.951C324.04 143.603 324.691 143.603 325.669 143.603C326.647 143.603 327.299 143.277 327.95 142.951C328.602 142.625 329.254 141.973 329.58 141.321C329.906 140.669 329.906 140.017 329.906 139.04V138.388Z" fill="#1D1D1B" stroke="black" stroke-width="0.1" stroke-miterlimit="10"/>
<path d="M335.772 145.232V131.869H337.728V133.825C338.706 132.195 340.009 131.544 341.965 131.544C342.617 131.544 343.594 131.544 344.246 131.869C344.898 132.195 345.55 132.521 345.876 133.173C346.202 133.825 346.527 134.151 346.527 134.803C346.527 135.129 346.527 136.106 346.527 137.084V145.558H344.246V137.41C344.246 136.432 344.246 135.781 343.92 135.455C343.594 135.129 343.268 134.477 342.942 134.477C342.617 134.477 341.965 134.151 341.313 134.151C340.335 134.151 339.357 134.477 338.706 135.129C338.054 135.781 337.728 137.084 337.728 138.714V146.21L335.772 145.232Z" fill="#1D1D1B" stroke="black" stroke-width="0.1" stroke-miterlimit="10"/>
<path d="M356.956 139.366L359.238 139.04C359.238 140.017 359.564 140.669 359.889 141.321C360.215 141.973 360.867 142.299 361.845 142.625C362.823 142.951 363.8 143.277 364.778 143.277C365.756 143.277 366.408 143.277 367.385 142.951C368.363 142.625 368.689 142.299 369.015 141.647C369.341 140.995 369.667 140.669 369.667 140.017C369.667 139.366 369.341 139.04 369.015 138.388C368.689 137.736 368.037 137.736 367.385 137.41C366.734 137.084 365.756 136.758 364.126 136.432C362.497 136.106 361.193 135.78 360.541 135.129C359.564 134.803 358.912 134.151 358.586 133.499C358.26 132.847 357.934 132.195 357.934 131.218C357.934 130.24 358.26 129.262 358.586 128.61C358.912 127.958 359.889 127.306 360.867 126.655C361.845 126.003 363.149 126.003 364.452 126.003C365.756 126.003 367.059 126.329 368.037 126.655C369.015 126.981 369.993 127.632 370.319 128.61C370.644 129.588 371.296 130.566 371.296 131.543L368.689 131.869C368.689 130.566 368.037 129.914 367.385 129.262C366.734 128.61 365.43 128.284 364.126 128.284C362.497 128.284 361.519 128.61 360.867 129.262C360.215 129.914 359.889 130.566 359.889 131.218C359.889 131.869 360.215 132.521 360.541 132.847C360.867 133.173 362.171 133.825 364.126 134.151C366.082 134.477 367.385 135.129 368.363 135.455C369.341 136.106 370.319 136.432 370.644 137.41C370.97 138.388 371.296 139.04 371.296 140.017C371.296 140.995 370.97 141.973 370.319 142.951C369.667 143.928 369.015 144.58 367.711 144.906C366.408 145.232 366.082 145.558 364.778 145.558C363.149 145.558 361.519 145.232 360.541 144.906C359.564 144.58 358.586 143.603 357.934 142.625C357.282 141.647 356.956 140.343 356.956 139.366Z" fill="#1D1D1B" stroke="black" stroke-width="0.1" stroke-miterlimit="10"/>
<path d="M383.681 140.343L385.962 140.669C385.637 142.299 384.985 143.277 384.007 144.254C383.029 145.232 381.726 145.558 380.096 145.558C378.141 145.558 376.837 144.906 375.533 143.603C374.23 142.299 373.904 140.669 373.904 138.388C373.904 137.084 374.23 135.78 374.556 134.477C374.882 133.173 375.859 132.521 376.837 131.869C377.815 131.218 378.792 130.892 380.096 130.892C381.726 130.892 382.703 131.218 383.681 131.869C384.659 132.521 385.311 133.825 385.637 135.129L383.355 135.455C383.029 134.477 382.703 133.825 382.377 133.499C382.052 133.173 381.074 132.847 380.422 132.847C379.118 132.847 378.467 133.173 377.489 134.151C376.511 135.129 376.511 136.432 376.511 138.062C376.511 140.017 376.837 141.321 377.489 141.973C378.141 142.625 379.118 143.277 380.096 143.277C381.074 143.277 381.726 142.951 382.377 142.299C383.029 141.647 383.355 141.321 383.681 140.343Z" fill="#1D1D1B" stroke="black" stroke-width="0.1" stroke-miterlimit="10"/>
<path d="M387.917 145.232V126.655H390.199V133.499C391.177 132.196 392.48 131.544 394.11 131.544C395.087 131.544 396.065 131.87 396.717 132.196C397.369 132.521 398.021 133.173 398.347 133.825C398.672 134.477 398.672 135.455 398.672 136.758V145.232H396.391V136.758C396.391 135.455 396.065 134.803 395.739 134.151C395.413 133.499 394.436 133.499 393.784 133.499C393.132 133.499 392.48 133.825 391.828 134.151C391.177 134.477 390.851 135.129 390.525 135.455C390.199 135.781 390.199 136.758 390.199 138.062V145.558L387.917 145.232Z" fill="#1D1D1B" stroke="black" stroke-width="0.1" stroke-miterlimit="10"/>
<path d="M401.606 138.388C401.606 135.781 402.258 134.151 403.561 132.847C404.865 131.869 406.168 131.218 407.798 131.218C409.753 131.218 411.057 131.869 412.361 133.173C413.664 134.477 413.99 136.106 413.99 138.062C413.99 139.692 413.664 141.321 413.338 142.299C413.013 143.277 412.035 143.929 411.057 144.58C410.079 145.232 409.102 145.558 407.798 145.558C405.843 145.558 404.539 144.906 403.235 143.603C401.932 142.299 401.606 140.669 401.606 138.388ZM403.887 138.388C403.887 140.017 404.213 141.321 404.865 142.299C405.517 143.277 406.494 143.603 407.798 143.603C408.776 143.603 409.753 143.277 410.731 142.299C411.709 141.321 411.709 140.017 411.709 138.388C411.709 136.758 411.383 135.455 410.731 134.477C410.079 133.499 409.102 133.173 407.798 133.173C406.494 133.173 405.843 133.499 404.865 134.477C403.887 135.455 403.887 136.758 403.887 138.388Z" fill="#1D1D1B" stroke="black" stroke-width="0.1" stroke-miterlimit="10"/>
<path d="M415.946 138.388C415.946 135.781 416.598 134.151 417.901 132.847C419.205 131.869 420.509 131.218 422.138 131.218C424.094 131.218 425.397 131.869 426.701 133.173C428.004 134.477 428.33 136.106 428.33 138.062C428.33 139.692 428.004 141.321 427.679 142.299C427.353 143.277 426.375 143.929 425.397 144.58C424.419 145.232 423.442 145.558 422.138 145.558C420.183 145.558 418.553 144.906 417.575 143.603C416.598 142.299 415.946 140.669 415.946 138.388ZM418.227 138.388C418.227 140.017 418.553 141.321 419.205 142.299C419.857 143.277 420.834 143.603 422.138 143.603C423.116 143.603 424.094 143.277 425.071 142.299C426.049 141.321 426.049 140.017 426.049 138.388C426.049 136.758 425.723 135.455 425.071 134.477C424.419 133.499 423.442 133.173 422.138 133.173C420.834 133.173 420.183 133.499 419.205 134.477C418.227 135.455 418.227 136.758 418.227 138.388Z" fill="#1D1D1B" stroke="black" stroke-width="0.1" stroke-miterlimit="10"/>
<path d="M431.264 145.232V126.655H433.546V145.232H431.264Z" fill="#1D1D1B" stroke="black" stroke-width="0.1" stroke-miterlimit="10"/>
</svg>
