<svg width="500" height="200" viewBox="0 0 500 200" fill="none" xmlns="http://www.w3.org/2000/svg">
<g clip-path="url(#clip0_91_42)">
<path d="M178.109 83.5583C193.729 63.7258 236.813 24 295.549 24C336.778 24 368 47.5047 368 47.5047C344.787 36.2032 252.984 17.833 180.724 84.7029L178.114 83.5536H178.109V83.5583Z" fill="#FAB71C"/>
<path d="M220.889 104.339C222.449 96.6585 227.777 91.6501 235.972 91.6501C244.168 91.6501 249.491 96.766 250.663 104.339H220.889ZM363.19 90.5709C364.773 90.5709 366.328 90.6971 367.837 90.9307V78.1575C365.039 77.7744 362.051 77.5875 358.815 77.5875C336.372 77.5875 319.425 91.0288 319.425 109.007C319.425 110.235 319.505 111.431 319.654 112.599C316.362 107.063 309.058 104.25 298.668 102.101C285.434 99.4103 283.604 98.2376 283.87 95.327C284.122 92.5518 288.568 89.9916 295.199 89.9916C299.443 89.9916 305.122 91.0007 310.179 93.3601V79.9889C305.304 78.4939 299.98 77.4987 294.232 77.4987C277.528 77.4987 266.326 85.5065 265.434 96.4996C265.429 96.5697 265.429 96.6351 265.42 96.7052C261.385 85.8709 251.961 77.751 235.734 77.751C216.21 77.751 202.873 92.0332 202.873 109.352C202.873 109.791 202.882 110.226 202.896 110.656C199.226 102.685 189.648 99.0132 176.722 96.1913C161.457 92.9116 159.281 91.4119 159.281 87.9266C159.281 84.4413 163.185 81.7315 169.26 81.8624C173.99 81.9605 176.806 83.0958 178.105 83.563C181.878 78.8816 185.926 74.3919 190.227 70.1264C183.834 67.7951 176.853 66.5944 169.325 66.5944C151.169 66.5944 138.482 75.6813 138.482 89.3515C138.482 99.8354 143.964 104.606 153.551 107.867C154.065 108.025 155.568 108.493 156.437 108.778C159.743 109.735 163.446 110.586 167.514 111.455C182.494 114.669 183.741 117.374 183.741 120.35C183.741 123.854 179.571 125.947 172.599 125.947C164.623 125.947 157.245 123.597 149.516 118.598C145.556 123.957 141.47 129.844 139.29 133.45C148.998 138.739 160.336 142 172.235 142C191.623 142 203.863 133.646 204.507 119.972C208.607 132.427 220.081 140.514 235.585 140.514C238.569 140.514 242.855 140.416 249.916 138.66V125.377C243.355 127.279 240.539 127.475 236.687 127.274C228.977 126.877 222.687 122.527 220.875 114.912H267.512C267.633 113.351 267.754 112.352 267.754 110.679V110.455C267.754 108.815 267.666 107.184 267.484 105.582C271.028 110.474 278.798 112.464 289.464 114.622C302.451 117.262 303.17 119.247 303.17 122.294C303.17 124.98 299.71 128.068 292.042 127.816C284.159 127.554 274.937 125.204 267.806 121.177V136.515C275.24 139.846 284.668 141.916 291.99 141.916C309.558 141.916 321.615 131.619 321.615 120.5C321.615 120.252 321.606 120.014 321.597 119.771C324.707 127.059 330.815 132.591 337.759 135.968C344.679 139.337 352.081 140.393 358.166 140.435C361.743 140.463 364.843 140.201 367.827 139.725V126.751C366.319 126.994 364.769 127.12 363.181 127.12C350.185 127.12 339.636 118.934 339.636 108.843C339.636 98.7515 350.185 90.5662 363.181 90.5662" fill="#0F4E8B"/>
<path d="M157.044 108.974C152.323 114.463 143.021 127.283 139.303 133.446C135.642 131.311 133.714 129.932 132 128.61C137.65 122.424 146.299 113.305 153.378 107.81C153.378 107.81 156.61 108.81 157.044 108.974Z" fill="#FAB71C"/>
</g>
<defs>
<clipPath id="clip0_91_42">
<rect width="236" height="118" fill="white" transform="translate(132 24)"/>
</clipPath>
</defs>
</svg>
