<svg width="274" height="100" viewBox="0 0 274 100" fill="none" xmlns="http://www.w3.org/2000/svg">
<g clip-path="url(#clip0_91_114)">
<mask id="mask0_91_114" style="mask-type:luminance" maskUnits="userSpaceOnUse" x="0" y="0" width="274" height="100">
<path d="M274 0H0V100H274V0Z" fill="white"/>
</mask>
<g mask="url(#mask0_91_114)">
<mask id="mask1_91_114" style="mask-type:luminance" maskUnits="userSpaceOnUse" x="0" y="0" width="274" height="100">
<path d="M274 0H0V100H274V0Z" fill="white"/>
</mask>
<g mask="url(#mask1_91_114)">
<path fill-rule="evenodd" clip-rule="evenodd" d="M179.119 71.1933V18.6466C179.119 0.813721 197.854 -3.01559 211.228 2.07066V12.0552C202.037 8.30924 191.71 9.17261 191.71 20.8006H206.652V30.7763H191.71V70.9983L179.119 71.1933Z" fill="#FBBA00"/>
<path fill-rule="evenodd" clip-rule="evenodd" d="M238.437 13.0072H247.741L249.652 20.8077H261.225V30.7763H251.032V54.0003C251.032 58.6522 253.041 60.9806 257.058 60.9853H263.439V70.9557H250.983C242.62 70.9557 238.438 66.4757 238.438 57.5159L238.437 13.0072Z" fill="#FBBA00"/>
<path d="M228.841 20.8041H216.251V70.9486H228.841V20.8041Z" fill="#FBBA00"/>
<path d="M228.841 2.6557H216.251V13.0073H228.841V2.6557Z" fill="#FBBA00"/>
<path fill-rule="evenodd" clip-rule="evenodd" d="M274 70.9628C262.937 88.411 243.457 99.9982 221.275 99.9982C199.093 99.9982 179.626 88.411 168.558 70.9611C181.558 82.9383 200.364 90.4622 221.275 90.4622C242.187 90.4622 260.998 82.933 274 70.9611" fill="#FBBA00"/>
<path d="M1.55432 59.427V52.5768C5.18402 54.0305 9.37437 54.7567 14.1254 54.7556C17.67 54.7556 19.4423 53.6156 19.4423 51.3358C19.4423 49.2545 18.2424 48.2245 15.864 48.2245H9.94978C3.31659 48.2221 0 44.8998 0 38.2576C0 31.4263 4.84433 28.0107 14.533 28.0107C18.4775 27.9833 22.3992 28.6112 26.1381 29.8686V36.7188C22.5049 35.2633 18.5721 34.5435 14.3132 34.5435C9.85053 34.5435 7.63159 35.6799 7.63159 37.9633C7.6245 40.0281 8.92066 41.0616 11.5201 41.064H16.7962C24.0486 41.064 27.6771 44.381 27.6818 51.0149C27.6818 57.8698 23.059 61.2938 13.8134 61.2867C9.26921 61.2867 5.18284 60.6668 1.55432 59.427ZM33.4347 60.9853V28.3085H39.8151L40.7792 32.4179C44.5259 29.6789 48.2548 28.3085 51.9448 28.3085C56.0554 28.3085 58.9714 29.8024 60.693 32.7902C64.8543 29.7977 68.7605 28.3038 72.4115 28.3085C79.3023 28.3085 82.7471 32.4451 82.7459 40.7183V60.9853H74.4922V40.4205C74.4922 36.7992 72.9603 34.9862 69.8966 34.9814C67.4437 34.9814 64.8803 36.3908 62.2065 39.2096V60.9853H53.9706V40.502C53.9706 36.8157 52.4564 34.9708 49.4281 34.9672C46.8122 34.9672 44.2323 36.3766 41.6884 39.1954V60.9853H33.4347ZM88.7115 50.811C88.7115 44.1121 93.4377 40.7638 102.89 40.7662C105.435 40.7396 107.977 40.9449 110.484 41.3796V39.2344C110.484 36.314 107.653 34.8526 101.99 34.8502C98.3886 34.8556 94.8071 35.3804 91.3558 36.4085V29.8668C94.8082 28.8444 98.3892 28.322 101.99 28.3156C113.151 28.3156 118.727 31.9026 118.72 39.0767V60.9853H114.552L111.007 58.6806C108.227 60.2069 105.104 61 101.933 60.9853C93.1175 60.9853 88.7115 57.5939 88.715 50.811M110.49 47.6022C108.407 47.1891 105.882 46.9888 102.895 46.9888C98.9289 46.9829 96.9457 48.2209 96.9457 50.7029C96.9457 53.1848 98.6063 54.4311 101.928 54.4418C105.281 54.4418 108.133 53.592 110.484 51.8924L110.49 47.6022ZM126.751 60.9853V28.3085H133.131L134.148 32.4729C137.018 29.7025 140.049 28.3144 143.24 28.3085V34.9672C140.168 34.9672 137.421 36.3441 134.999 39.0979V60.9853H126.751ZM148.343 23.0201H154.44L155.693 28.3085H163.275V34.8431H156.596V49.8696C156.596 52.9177 157.913 54.4435 160.545 54.4471H163.275V60.9853H156.566C151.084 60.9853 148.343 58.0477 148.343 52.1726V23.0201Z" fill="black"/>
</g>
</g>
</g>
<defs>
<clipPath id="clip0_91_114">
<rect width="274" height="100" fill="white"/>
</clipPath>
</defs>
</svg>
