<svg width="500" height="200" viewBox="0 0 500 200" fill="none" xmlns="http://www.w3.org/2000/svg">
<g clip-path="url(#clip0_91_109)">
<mask id="mask0_91_109" style="mask-type:luminance" maskUnits="userSpaceOnUse" x="95" y="44" width="310" height="113">
<path d="M405 44H95V157H405V44Z" fill="white"/>
</mask>
<g mask="url(#mask0_91_109)">
<mask id="mask1_91_109" style="mask-type:luminance" maskUnits="userSpaceOnUse" x="95" y="44" width="310" height="113">
<path d="M405 44H95V157H405V44Z" fill="white"/>
</mask>
<g mask="url(#mask1_91_109)">
<path fill-rule="evenodd" clip-rule="evenodd" d="M297.653 124.448V65.0707C297.653 44.9195 318.85 40.5924 333.981 46.3398V57.6224C323.582 53.3894 311.898 54.365 311.898 67.5047H328.803V78.7772H311.898V124.228L297.653 124.448Z" fill="#FBBA00"/>
<path fill-rule="evenodd" clip-rule="evenodd" d="M364.764 58.6982H375.291L377.453 67.5127H390.547V78.7772H379.015V105.02C379.015 110.277 381.287 112.908 385.833 112.913H393.051V124.18H378.959C369.497 124.18 364.766 119.118 364.766 108.993L364.764 58.6982Z" fill="#FBBA00"/>
<path d="M353.908 67.5087H339.664V124.172H353.908V67.5087Z" fill="#FBBA00"/>
<path d="M353.908 47.0009H339.664V58.6982H353.908V47.0009Z" fill="#FBBA00"/>
<path fill-rule="evenodd" clip-rule="evenodd" d="M405 124.188C392.484 143.904 370.445 156.998 345.348 156.998C320.251 156.998 298.226 143.904 285.704 124.186C300.412 137.72 321.689 146.222 345.348 146.222C369.007 146.222 390.29 137.714 405 124.186" fill="#FBBA00"/>
<path d="M96.7585 111.153V103.412C100.865 105.055 105.606 105.875 110.981 105.874C114.992 105.874 116.997 104.586 116.997 102.009C116.997 99.6576 115.639 98.4937 112.948 98.4937H106.257C98.7524 98.491 95 94.7368 95 87.2312C95 79.5118 100.481 75.6521 111.442 75.6521C115.905 75.6212 120.342 76.3307 124.572 77.7516V85.4923C120.462 83.8476 116.012 83.0343 111.194 83.0343C106.145 83.0343 103.634 84.3184 103.634 86.8986C103.626 89.2318 105.093 90.3997 108.034 90.4024H114.003C122.208 90.4024 126.313 94.1506 126.319 101.647C126.319 109.393 121.089 113.262 110.628 113.254C105.487 113.254 100.864 112.554 96.7585 111.153ZM132.828 112.913V75.9887H140.046L141.137 80.6323C145.376 77.5372 149.595 75.9887 153.77 75.9887C158.42 75.9887 161.72 77.6768 163.667 81.053C168.375 77.6714 172.795 75.9833 176.925 75.9887C184.722 75.9887 188.619 80.663 188.618 90.0117V112.913H179.279V89.6752C179.279 85.5831 177.546 83.5344 174.08 83.5291C171.305 83.5291 168.405 85.1217 165.38 88.3069V112.913H156.062V89.7673C156.062 85.6018 154.348 83.517 150.922 83.513C147.963 83.513 145.044 85.1057 142.166 88.2909V112.913H132.828ZM195.367 101.417C195.367 93.8467 200.714 90.0632 211.408 90.0658C214.288 90.0358 217.164 90.2678 220.001 90.759V88.335C220.001 85.0349 216.797 83.3835 210.39 83.3808C206.316 83.3869 202.263 83.9799 198.359 85.1417V77.7496C202.265 76.5942 206.316 76.0039 210.39 75.9967C223.017 75.9967 229.327 80.05 229.319 88.1567V112.913H224.602L220.592 110.309C217.447 112.034 213.914 112.93 210.326 112.913C200.352 112.913 195.367 109.081 195.371 101.417M220.007 97.7905C217.651 97.3238 214.793 97.0974 211.414 97.0974C206.927 97.0907 204.683 98.4897 204.683 101.294C204.683 104.099 206.562 105.507 210.32 105.519C214.113 105.519 217.34 104.559 220.001 102.639L220.007 97.7905ZM238.404 112.913V75.9887H245.623L246.774 80.6944C250.021 77.5639 253.45 75.9953 257.06 75.9887V83.513C253.585 83.513 250.477 85.0689 247.736 88.1807V112.913H238.404ZM262.833 70.0128H269.731L271.149 75.9887H279.727V83.3728H272.171V100.353C272.171 103.797 273.66 105.521 276.639 105.525H279.727V112.913H272.137C265.934 112.913 262.833 109.594 262.833 102.955V70.0128Z" fill="black"/>
</g>
</g>
</g>
<defs>
<clipPath id="clip0_91_109">
<rect width="310" height="113" fill="white" transform="translate(95 44)"/>
</clipPath>
</defs>
</svg>
